<svg xmlns="http://www.w3.org/2000/svg" fill="none" viewBox="0 0 166 132"><circle cx="88" cy="68" r="64" fill="url(#a)"/><mask id="b" width="128" height="128" x="24" y="4" maskUnits="userSpaceOnUse" style="mask-type:luminance"><circle cx="88" cy="68" r="64" fill="#fff"/></mask><g mask="url(#b)"><rect width="80" height="88" x="48" y="44" fill="#F4F4F4" rx="8"/><rect width="32" height="4" x="72" y="100" fill="#CACBCF" opacity=".5" rx="2"/><path fill="#CACBCF" fill-rule="evenodd" d="M76 118c0-1.1.9-2 2-2h20a2 2 0 1 1 0 4H78a2 2 0 0 1-2-2ZM64 110c0-1.1.9-2 2-2h44a2 2 0 1 1 0 4H66a2 2 0 0 1-2-2Z" clip-rule="evenodd" opacity=".5"/><path fill="#A0A1A4" fill-rule="evenodd" d="M83 58c0-1.1.9-2 2-2h6a2 2 0 0 1 2 2v16a2 2 0 0 1-2 2h-6a2 2 0 0 1-2-2V58Z" clip-rule="evenodd" opacity=".7"/><circle cx="88" cy="86" r="6" fill="#A0A1A4" opacity=".7"/><g filter="url(#c)" opacity=".2"><path fill="#000" fill-rule="evenodd" d="M36.2 108c27.8 24 60.5 36 98.6 4C173 80 173 138 173 138l-73 39.2L19.2 152s-10.8-68 17-44Z" clip-rule="evenodd"/></g></g><circle cx="6" cy="86" r="6" fill="url(#d)"/><circle cx="147" cy="21" r="5" fill="url(#e)" opacity=".8"/><circle cx="162" cy="4" r="4" fill="url(#f)" opacity=".5"/><circle cx="27" cy="23" r="3" fill="url(#g)" opacity=".6"/><defs><linearGradient id="a" x1="24" x2="24" y1="4" y2="132" gradientUnits="userSpaceOnUse"><stop stop-color="#C7C7CA"/><stop offset="1" stop-color="#A9AAAE"/></linearGradient><linearGradient id="d" x1="0" x2="0" y1="80" y2="92" gradientUnits="userSpaceOnUse"><stop stop-color="#C7C7CA"/><stop offset="1" stop-color="#A9AAAE"/></linearGradient><linearGradient id="e" x1="142" x2="142" y1="16" y2="26" gradientUnits="userSpaceOnUse"><stop stop-color="#C7C7CA"/><stop offset="1" stop-color="#A9AAAE"/></linearGradient><linearGradient id="f" x1="158" x2="158" y1="0" y2="8" gradientUnits="userSpaceOnUse"><stop stop-color="#C7C7CA"/><stop offset="1" stop-color="#A9AAAE"/></linearGradient><linearGradient id="g" x1="24" x2="24" y1="20" y2="26" gradientUnits="userSpaceOnUse"><stop stop-color="#C7C7CA"/><stop offset="1" stop-color="#A9AAAE"/></linearGradient><filter id="c" width="210.2" height="129.2" x="-10" y="75.2" color-interpolation-filters="sRGB" filterUnits="userSpaceOnUse"><feFlood flood-opacity="0" result="BackgroundImageFix"/><feBlend in="SourceGraphic" in2="BackgroundImageFix" result="shape"/><feGaussianBlur result="effect1_foregroundBlur_0_1557" stdDeviation="13.6"/></filter></defs></svg>