<svg xmlns="http://www.w3.org/2000/svg" width="15" height="18" viewBox="0 0 15 18" fill="none">
  <path fill-rule="evenodd" clip-rule="evenodd" d="M4.1511 18H1.85908V8.62907H2.75042H3.25976H4.1511V10.3861H7.13073C8.48048 10.3861 9.51401 10.0108 10.2313 9.2603C10.4158 9.06726 10.5766 8.85684 10.7136 8.62907H12.2114H12.7207H13.2234C13.1233 8.90335 13.0046 9.16799 12.8671 9.42299C12.3621 10.3601 11.6638 11.0976 10.7725 11.6356C9.88115 12.1735 8.84975 12.4425 7.67827 12.4425H4.1511V18ZM13.5805 7.06725H15V8.62907H13.2234C13.4021 8.1392 13.5211 7.6186 13.5805 7.06725ZM11.2493 7.06725C11.1643 7.65628 10.9857 8.17689 10.7136 8.62907H4.1511V7.06725H11.2493ZM11.2532 5.37527C11.2893 5.6351 11.3073 5.90842 11.3073 6.19523V6.22126C11.3073 6.5174 11.288 6.7994 11.2493 7.06725H12.2114H12.7207H13.5805C13.61 6.79286 13.6248 6.51087 13.6248 6.22126V6.19523C13.6248 5.91464 13.611 5.64132 13.5835 5.37527H15V3.81345H13.2349C13.134 3.53195 13.0136 3.2608 12.8735 3C12.3727 2.06725 11.6766 1.33406 10.7852 0.800434C9.89389 0.266811 8.86248 0 7.691 0H1.85908V3.81345H0V5.37527H1.85908V7.06725H0V8.62907H1.85908V7.06725H2.75042H3.25976H4.1511V5.37527H11.2532ZM10.7284 3.81345C10.9964 4.26444 11.1713 4.78505 11.2532 5.37527H12.2114H12.7207H13.5835C13.5265 4.8234 13.4103 4.30279 13.2349 3.81345H12.7207H12.2114H10.7284ZM4.1511 3.81345V2.0564H7.13073C8.48896 2.0564 9.52462 2.42733 10.2377 3.1692C10.4262 3.3653 10.5898 3.58005 10.7284 3.81345H4.1511ZM4.1511 3.81345H3.25976H2.75042H1.85908V5.37527H2.75042H3.25976H4.1511V3.81345Z" fill="currentColor"/>
</svg>