<svg xmlns="http://www.w3.org/2000/svg" fill="none" viewBox="0 0 126 126"><circle cx="63" cy="63" r="63" fill="#FFCDAA" opacity=".2"></circle><circle cx="63" cy="63" r="59" fill="#FFBE91" opacity=".3"></circle><circle cx="63" cy="63" r="55" fill="#FF5800"></circle><path fill="#fff" fill-rule="evenodd" d="M38 40.9a5 5 0 0 1 5-5h40a5 5 0 0 1 5 5V90a5 5 0 0 1-5 4.9H43a5 5 0 0 1-5-5V41Z" clip-rule="evenodd"></path><path fill="#FF5800" fill-rule="evenodd" d="M53 48.2a1 1 0 0 0-.8.5l-2.6 5.5-5.8.8a1 1 0 0 0-.8.7c0 .3 0 .7.3 1l4.2 4.2-1 6c0 .3 0 .6.3.8a.9.9 0 0 0 1 .1L53 65l5.2 2.8a.9.9 0 0 0 1 0c.2-.3.4-.6.3-1l-1-6 4.2-4.2c.3-.2.4-.6.3-1a1 1 0 0 0-.8-.6l-5.8-.8-2.6-5.5a1 1 0 0 0-.8-.5ZM68 55.6c0-1.3 1.1-2.4 2.5-2.4h10c1.4 0 2.5 1 2.5 2.4s-1.1 2.5-2.5 2.5h-10a2.5 2.5 0 0 1-2.5-2.5ZM68 65.5c0-1.4 1.1-2.5 2.5-2.5h10c1.4 0 2.5 1.1 2.5 2.5 0 1.3-1.1 2.4-2.5 2.4h-10a2.5 2.5 0 0 1-2.5-2.4ZM43 75.3c0-1.4 1.1-2.5 2.5-2.5h35c1.4 0 2.5 1.1 2.5 2.5s-1.1 2.5-2.5 2.5h-35a2.5 2.5 0 0 1-2.5-2.5ZM43 85.2c0-1.4 1.1-2.5 2.5-2.5h35c1.4 0 2.5 1 2.5 2.5 0 1.3-1.1 2.4-2.5 2.4h-35a2.5 2.5 0 0 1-2.5-2.4Z" clip-rule="evenodd"></path><path fill="#FF5800" d="M50.5 36h25v3.6c0 2-1.7 3.7-3.7 3.7H54.2c-2 0-3.7-1.7-3.7-3.7v-3.7Z"></path><path fill="#FF5800" fill-rule="evenodd" d="M48 36h2.5v2.4c0-1.4-1.1-2.5-2.5-2.5ZM78 36h-2.5v2.4c0-1.4 1.1-2.5 2.5-2.5Z" clip-rule="evenodd"></path><rect width="20" height="9.8" x="53" y="31" fill="#fff" rx="2.5"></rect></svg>