<svg width="166" height="132" viewBox="0 0 166 132" fill="none" xmlns="http://www.w3.org/2000/svg">
<circle cx="88" cy="68" r="64" fill="url(#paint0_linear_0_811)"/>
<mask id="mask0_0_811" style="mask-type:luminance" maskUnits="userSpaceOnUse" x="24" y="4" width="128" height="128">
<circle cx="88" cy="68" r="64" fill="white"/>
</mask>
<g mask="url(#mask0_0_811)">
<rect x="48" y="44" width="80" height="88" rx="8" fill="#FFF8F2"/>
<rect opacity="0.499998" x="72" y="100" width="32" height="4" rx="2" fill="#E6CDC0"/>
<path opacity="0.499998" fill-rule="evenodd" clip-rule="evenodd" d="M76 118C76 116.895 76.8954 116 78 116L98 116C99.1046 116 100 116.895 100 118V118C100 119.105 99.1046 120 98 120H78C76.8954 120 76 119.105 76 118V118Z" fill="#E6CDC0"/>
<path opacity="0.499998" fill-rule="evenodd" clip-rule="evenodd" d="M64 110C64 108.895 64.8954 108 66 108L110 108C111.105 108 112 108.895 112 110V110C112 111.105 111.105 112 110 112H66C64.8954 112 64 111.105 64 110V110Z" fill="#E6CDC0"/>
<rect opacity="0.704636" x="102.456" y="58.3431" width="10" height="36" rx="2" transform="rotate(45 102.456 58.3431)" fill="#FF5800"/>
<rect opacity="0.704636" width="10" height="24" rx="2" transform="matrix(-0.707107 0.707107 0.707107 0.707107 74.1997 66.8284)" fill="#FF5800"/>
<g opacity="0.156591" filter="url(#filter0_f_0_811)">
<path fill-rule="evenodd" clip-rule="evenodd" d="M36.1943 108C63.9998 132 96.693 144 134.846 112C173 80 173 137.977 173 137.977L99.9998 177.19L19.2256 152C19.2256 152 8.38881 84 36.1943 108Z" fill="black"/>
</g>
</g>
<circle cx="6" cy="86" r="6" fill="url(#paint1_linear_0_811)"/>
<circle opacity="0.8" cx="147" cy="21" r="5" fill="url(#paint2_linear_0_811)"/>
<circle opacity="0.5" cx="162" cy="4" r="4" fill="url(#paint3_linear_0_811)"/>
<circle opacity="0.6" cx="27" cy="23" r="3" fill="url(#paint4_linear_0_811)"/>
<defs>
<filter id="filter0_f_0_811" x="-10.0363" y="75.1841" width="210.219" height="129.188" filterUnits="userSpaceOnUse" color-interpolation-filters="sRGB">
<feFlood flood-opacity="0" result="BackgroundImageFix"/>
<feBlend mode="normal" in="SourceGraphic" in2="BackgroundImageFix" result="shape"/>
<feGaussianBlur stdDeviation="13.5914" result="effect1_foregroundBlur_0_811"/>
</filter>
<linearGradient id="paint0_linear_0_811" x1="24" y1="4" x2="24" y2="132" gradientUnits="userSpaceOnUse">
<stop stop-color="#FF9826"/>
<stop offset="1" stop-color="#FF5800"/>
</linearGradient>
<linearGradient id="paint1_linear_0_811" x1="0" y1="80" x2="0" y2="92" gradientUnits="userSpaceOnUse">
<stop stop-color="#FF9826"/>
<stop offset="1" stop-color="#FF5800"/>
</linearGradient>
<linearGradient id="paint2_linear_0_811" x1="142" y1="16" x2="142" y2="26" gradientUnits="userSpaceOnUse">
<stop stop-color="#FF9826"/>
<stop offset="1" stop-color="#FF5800"/>
</linearGradient>
<linearGradient id="paint3_linear_0_811" x1="158" y1="0" x2="158" y2="8" gradientUnits="userSpaceOnUse">
<stop stop-color="#FF9826"/>
<stop offset="1" stop-color="#FF5800"/>
</linearGradient>
<linearGradient id="paint4_linear_0_811" x1="24" y1="20" x2="24" y2="26" gradientUnits="userSpaceOnUse">
<stop stop-color="#FF9826"/>
<stop offset="1" stop-color="#FF5800"/>
</linearGradient>
</defs>
</svg>
