<svg
        xmlns="http://www.w3.org/2000/svg"
        fill="none"
        viewBox="0 0 23 24"
        class="w-[24px]"
      >
        <path
          fill="#F66600"
          d="M15.9 4.2h3a4 4 0 0 1 4.1 4V20a4 4 0 0 1-4 4H4a4 4 0 0 1-4-4V8.3a4 4 0 0 1 4-4h3l-1.6-3c-.2-.5 0-1 .4-1.2.4-.2.9 0 1.1.4l2 3.7h5l2-3.7a.9.9 0 0 1 1.6.7l-1.6 3Z"
        />
        <path
          fill="#fff"
          d="M7.5 10.8v7a1.4 1.4 0 0 0 2 1.2l6-3.5a1.4 1.4 0 0 0 0-2.3l-6-3.6a1.4 1.4 0 0 0-2 1.2Z"
        />
      </svg>